<mxfile host="app.diagrams.net" modified="2024-05-08T12:55:50.058Z" agent="Mozilla/5.0 (X11; Linux x86_64; rv:125.0) Gecko/20100101 Firefox/125.0" etag="_T0fA5te-U3H4s2DLtj7" version="24.3.1" type="device">
  <diagram name="Page-1" id="5Yzbtm4-7MDEccCgHpou">
    <mxGraphModel dx="819" dy="453" grid="1" gridSize="10" guides="0" tooltips="1" connect="1" arrows="1" fold="1" page="1" pageScale="1" pageWidth="827" pageHeight="1169" math="0" shadow="0">
      <root>
        <mxCell id="0" />
        <mxCell id="1" parent="0" />
        <mxCell id="F9F8o9_uDB8CdRO1BHH_-4" value="" style="shape=image;verticalLabelPosition=bottom;labelBackgroundColor=default;verticalAlign=top;aspect=fixed;imageAspect=0;image=data:image/png,iVBORw0KGgoAAAANSUhEUgAAAPsAAAJRCAYAAACDasEHAAAABHNCSVQICAgIfAhkiAAAIABJREFUeF7tfQd4HMeV5kPOOROBAEgEEiBBgpRIKlBUok/Bkq2TbK1k2fLJpuVdWyvL0u6evts9ab3nO5/psF55fZK8tmzLthxErwItmVRgkJhzAEAQiQgkApFzIu+9IQeY0D1T3T3d0zP93vfNR6K7qrrqr/67q6te/S/kMhqwMQKMQNAjEBr0LeQGMgKMgA0BJjvfCIyARRBgsluko7mZjACTne8BRsAiCIRbpJ1+b+b29z+Aqakpv9fDbBW4ZcNNEBMTY7ZqBWV9mOwGdmtXd7eBV+NLMQLOCPAwnu8IRsAiCDDZLdLR3ExGgMnO9wAjYBEE+JvdoI7u6u6B8fEJg64WOJcZGxvjCTqDuovJbhDQdFOPT4wbdDW+DCPgjgAP490x4SOMQFAiwGQPym7lRjEC7ggw2d0x4SOMQFAiwN/sBnZraBg/Ww2Emy/lggCT3aBboqhwIbS1txt0tcC5TGxsbOBUNsBryq+aAO9Arj4jIIpAiFFKNRMzM9A5NAIt/QPQPjgEncMjMDo1LVrPgE/X2NQMQ0NDAd8OXzegsmIpRERE+LpY05aXm5gA2QnxkJecaPuXfkaZbmQnMn/c0gYfN7fBHvz3QFuHUW3i6zACAYNAYUoyXF+YD9cV5dv+XZ6TpVvdfU72mUuX4JWDx+Cft++yvcHZGAFGQAyB8NBQ+FRlOXz7jltgcXqqWCYFqXxG9r6xcfj10ZPwmyMnYX8rv8UV9AEnZQScEMiIi4WHq5fBQ/hbnbfAZ+j4hOwjk1Ow6Y9vw2vHTvmsYlwQI2B1BJJjouH3j9wPt5UU+wQKzWR/p64BvrdzL3zQ0OyTCnEhjAAjMI9AOr7lv7F+LXzzpnUQGRamCRpNZD/V2Q0bX3rVNrPOxggwAvoh8OjqFfDSA3cDfderNdU56Y3+V6++zkRXizznYwQUIPDKoWPw/PadCnK4J1VF9iMdF2xD99NdPe4l8hFGgBHQBYHvI+f+fc9B1WWrIvvmHfyNrhpxzsgIqERgfHoGnn5rOxxqP6+qBMVk/7ePD/CsuyqoORMjoB0B8kT97o49MDU7q7gwRRthyGHm5X1HFF+EMsRHRcKnKsphfXHBnMMAVbzhYh+8eboedjS2AJXPxggEEwJ5SYlw//KlcG3BgjnX2AGUJ6PJ7S0n6+DY+U7Fzf3D8Rr4NDrfPLiiUlFeRbPxNEHw/DZlkwTkILBp3SrYtGYV5KM/sJy9j0t3L+09DH84USOXhI8zAgGDQNWCLPgy3vNfWbsKwkJDZOv9q8Mn4KV9h22u5Urs1sVF8KuHPq3It14R2Qv+5YeKXGDpqfbv990Jdy8tFWoHvdl/uHsf/NO7O4De+myMQCAisHZhHvzsM/dAeWa6UPXpTf/Um9uAZtyV2Ev33w1fWlMtnEX4m52GG0p83YnoR76xSZjoVGNaQ3z6puvgz196SNN6onDrOSEj4GME6MW2668fFSY6XZ485X722Xvgnz+xQVFt/ozL30pMmOy/PHRCuFwauv/rp/4LkPePGtuwqBD+9sY1arJyHkbAbwjQrrX/feetql9U9Ja+R3AUTI2s674IvbgnRdSEyD6NM3+0TVXU6BudJhC0GH3r3ILfJWyMQCAgEBMRDpvwnq3IylBdXdrbvmndaqBRsYgR2ZV86wuRffbyZeH96DTr/s3160Tq6jENbfH7h1uu95iGTzICZkFgFe5Oe2TVcs3VubN8MXzhmirhcvaeE38JC5H9UJv4Iv5X1q62fYP4wlYsyIbK7ExfFMVlMAK6IrBprfhEmbeK3FS80FuSufNjCtSehMiuZP27LMN3m+7pm58Iz8YImB2BtQV5PqsibWkVHcqfvCAeBlyI7Kc6xX3gK3z8Jk6N9c0owWc9wQUxAi4IZMbH+VxZRlSbblaBI5oQ2SdmxIUhJ328Pp4SG8M3FyNgagS6R0Z9Xj+a+xKxtgFx6TchsitRgb0sUkMFaS4MDitIzUkZAeMRSIqOBl+/5C6Ojvm8IUJkV3LV0+jz60vr4zDHvoSTy9IBgcGJCTiLezx8aXoIwvic7AdaxWfuvYFDmwVogwwbI2B2BP5S3+izKr565AQExJudRCdpsd8Xtu9cuy6N9kXduAxGwBGBF3ETl6/2c2w706QLuD5/s9My3f/8yw7o1zj83lp71qY9z8YIBAICtFX7X97brbmqP9i1D+jNrof5nOxUSdqm+iJu21NrFzBM1Mv7jyjaeKP2WpyPEfAVArRVdcvJWtXF7Ww6Z7vv9TJdyE6V/Wfc9/5Rc6uqev8Ct/q9efqMqryciRHwFwL0nf0/3v1Q1UuKPgH+dfd+n30CS2GgG9mp8nf/7LfwzNvbbWo0IkZD90+98jt49p0PRJJzGkbAdAjQfNXtL/4KaDg+OjUlVL+fHjgK63/8CvznqTqh9GoTKZKlUnqRoYlJmwotkfhHuOVVLrIFPRheRcWOv9v6HtBGfjZGIJARONPTC998axt8iCtJ//eu22T3ttNI4Dsf7sE3+j5DJNl0Jbu9w+hpR8EkyN+X9qovSk+xnSKSN17sh3fPNACFkGJjBIIJgbdr6oF+tL+D1GuyEuJszRscn7Rp0Bmtu2gI2e0dSEo3es00BtNNwm0JLgRI5UmNsKSvUdDtm93XFeXyGAFGQBsCTHZt+HFuRiBgEGCyB0xXcUUZAW0IMNm14ce5GYGAQYDJHjBdxRVlBLQhwGTXhh/nZgQCBgEme8B0FVeUEdCGAJNdG36cmxEIGASY7AHTVVxRRkAbAkx2bfhxbkYgYBBgsgdMV3FFGQFtCBjqG6+tqpybEKjOTINFSfGQj3HBRqan4Wz/IJzqHYQelbsFCxPjoSo92VYeWcvQsK28FhQQYQsuBJjsAdKfa7LT4ZPF+UD/utqF0XHY2tQGb7V0wNi0WFz7xcmJWF4e3FmY61ocTKG02NtN7fB2czu0DfteE93tgnzAEAR4GG8IzNouko9bI//hmmWSRKeSc+Ji4EvLSuHJlUuFLhQZGgpPr1oqSXQqgM7ft7gAnl9bBfEYnZQtOBBgspu8H/PiY+GJFeVCpLs5Lwvuxre1N/tqVRl+CiR4S4ZD+zh4uLzYazpOEBgIMNlN3k8rMlJghYJgmY9VlNjezHJG3+h3SAzd5dLfX7IQlqQmyZ3m4wGEgPxdEUCNCOaqrspy/0b31F4adhfhBJ6crcVv/rCQELnTksdL8fueLfARYLKbvA8LrkoZKammpzz5+GZXajScZwt8BJjsgd+Hilqg7J2uqGhObHIEmOwm76BWFUtfnvK0qlg/b9UhJLHJYQ/K6jHZTd6tNb0DimpIa+SeyH6kW0zD3/Gi7cO+Dx+sqFGc2CcIMNl9AqN+hey90APHesQJ+v9OnIHxmVnZCtUPDNmcZUTt9bPn4Eh3r2hyTmdiBEzjMUHrvhsXLrC5gmahk8j5kTF02RyFbefOQ+PgsIkh1Ldq7YjDz043wA9uusbrLPpxfCj8ubnDa4X+49RZm4NORky0x7R9GOTj9YZWj2n4ZOAg4HeyZyOxyQ30HvxFh80PNLJjY2x+4LfkZ8NbeAOTO2gv3nxWtNq+QfjHPUfhzqI8uGFBphsENGz/M7rK/hnf2LOXL7uddz0wgi61/+NjLA8dcO7GMl2X4kbx/FYsi8pU63Pvek3+2/8I+J3snykptPloy1lyVCQ8Ul4EMfggePFkvVyyoD9+sKsXh9N9sDYnA0pw3XtRcjz0T0xD48AgHMTjNBJSYk04UffCsTrY0dZpc5opv+o4U4cPFnq4nFI4V6Dk2pzWPwj4lex34VuF3iwiRuka8XvzPbw5rWr01v74fLft5ysjUjOxfYWmucvx6wQd+XKLOnNFh4fBp9F1k40RYATUIeA3sqdER0KxwGYMx2YlRUZClAe/b3UQcC5GwBoI+I3skaFhkBAZoQjlrNhoyGPXTUWYcWJGwI6A38geg8NypTaB68fDU9NKs3F6RoARQAT8RvbW4RFoV+gKSm6b3Srll7i3GQGrI+A3sl/C5eCTqHWmxDpGxpUk57SMACPggIDfyE51eAsdZc70Dwl1yImL/fBqbaNQWk7ECDAC7gj4lexncd38FzWNHn25qcrk670F3TY9bfBwb1pwHiEVGhKTuA09C9dmZ0BqdJTmhpJ6zfrcLNuP965rhtO0BfjVqYZQOdh1EZ79+IjNFfT2ghwnoC7hWH8ruYG2tEPDgHX94wkU0qK72+ZWnAcRLsuPhOFWdClW4mxDfgvkokyuytm4yuFo5F1nU6vFMi8LuN+a9u7mijkh4HeyU23sXlw/xw0fpSmJkI83dhu6f9bjEJ99s8EmNvl3qytlteCuQekq2kfwk+N18AZKQIvYV5aVofeiu4w05S3GN/3XVyyBJWkpsPnQKSF/e5Frchr/ImAKstshIGIzuZ1vCFqi/FpVuSzR7alpM8tD5YugZ2IK9nhxp31kSbEs0R2vTp8Kzfip9Xvc5soW+Aj49Zs98OHTvwVV6alwq8vnjdxVU9Er8UsVi+VO247Tttb7Fou7HX8By8vCHYhsgY8Ak93kfXgTvl2VGE2wFXrwMrxhQYaQBr39mjQhSHLWbIGPAJPd5H240ANx5aruSUHWHtNNLq/UcZ6hl0Il8I4x2U3eZ8lRyvYPUHNcZ9cdmxijIpzTwkSWkjb5bSJUPSa7EEz+S6QmmiqtYshZ56gykQsq5+RFZaKXctfm4/5FgMnuX/y9Xr1xUHnoZE8PiBqFLspUwU6MEssW+Agw2U3eh4c6LyoKm/xqXRMMetgZ2ITx10mxVtR2tHfCYVaXFYXL1OlMs85O68nkGEIqs5koQnkBd7iRuizJGHuSRjY1uj6o3HHcE0Dij48vL/Na2r7OHltaT9Y7PmlLszg5wau6LO1K3IpOOiRAyRb4CJiC7DYtOnQDXSyhXEPedeS6aWXtuTeRcLRL8C7ESGp2/hK6tF5Rl+2Ai0hmb7YfRwv/70Q93IUedPSAlTJyzHmn5Twcw4cNW3Ag4Heyk5fW1zH+uKucsR3eyrRkoB/5cr8toIkeHN3i3IppjPLyp8ZW2IPD7/sWF9hcimkE1I/S2g2oqb8fj29rvaCo6bs6umz7Eqg8UpZdknIlLHNt/yCQwixtPLLyiEoRmAGS2K9kp11bj1WWyhLdEcP7SwqhHfezK4mOEiB9IFzNrrFx+AlGfPGVEZl/Xdfsq+K4HJMj4NcJulvQDTQ9RmyLZi5ujvlMqbibp8lx5+oxAoYj4Dey04RcZdqVoaNoqzPZR1sUKk7HCLgh4DeyF6AbqLdYY661pckpysfGCDACyhHwG9mVV/VKDu+RzNSWzPkYgeBGwG9kJ4kppXvXz2GeNoWKtMHdfdw6RkAcAb+RnWaClYZiZs148Y7llIyAKwJ+IztVZGuTmBMIpe1AmapfojglGyPACKhDwK9kJ/fOLQ1ikkc72rvgaE+fulZyLkaAEQC/OtUQ/n9AfbMh3LhBLrMUJ9zViODvoC/3h0h2NkaAEVCPgN/JTlX/y7nzsA9dPq/JSoMSdNvMT0B12eExOIuumwe7ej3u4lLfdM7JCFgLAVOQnSCnbZm02cXKG16sdetxa41GwK/f7EY3lq/HCFgZASa7lXuf224pBJjslupubqyVEWCyW7n3ue2WQoDJbqnu5sZaGQEmu5V7n9tuKQSY7Jbqbm6slREwHdlJi44CCcpp0lm5s7jtjIAWBEzjVHMvKqfegS6zhRgbnIg+hSKLtJ2VXGVFY45rAYLzMgLBjoDfyZ4aHQVPr1qKrrLpTlhT9FBSUP3aiiVwY24WfPvgKehDNVU2RoARUIeAX4fxRPS/XbnEjeiuTanKSIXHl5VCHOrWsTECjIA6BPxK9jXZaXBdToZQzW9Gffk7cZjPxggwAuoQ8CvZ7ynOV1TrtYIPBkWFcmJGwCII+I3s2RjPrQAn45QYpU+MVB6vXMk1OC0jEKwI+I3soTjjTpNwSiwZiZ7N2vFKIOO0jMAcAsrY5kPgKBghLa8psQHc804hkNgYAUZAOQJ+I3vn6Di0Do0oqnEbpvcUe1xRYZyYEbAYAn4jO+G8U6Gu3GmMLsrGCDAC6hDwK9kpzDCFIRaxD1Gy6rW6JpGknIYRYAQkEPAr2ckj7sWT9V6DRVAwiV8h0UcxsAQbI8AIqEPA7+6y5zH4w998sB8eLi+GW9FxZgGGZrYbnXsf3+i/RqLP4oQeGyPACKhHwO9kp6oTkX9Z22j7xUeEo5R0nG0TzMj0jPqWcU5GgBFwQsAUZHesERG8lifi+DZlBHyOgF+/2X3eGi6QEWAEZBFgsstCwycYgeBCgMkeXP3JrWEEZBFgsstCwycYgeBCgMkeXP3JrWEEZBFgsstCwycYgeBCgMkeXP3JrWEEZBFgsstCwycYgeBCwHRONcEFL7dGFIGMmGhYkpoE5fhLjIqEc7gfonFwBI739LGrtCiIXtIx2b0AxKf1RSAO3aNJi/CTGDeACD9vObb/fnS+G95qaocj3b36VsQCpfMw3gKdbOYm0gao/1ax2IXo8zW+YUEmPLe2CkqTE83cjICoG5M9ILopOCv56UX58EDJQq+Ni8F4AZ9fukj2geC1AE5gQ4DJzjeC3xB4sKxI+NprstNtW6DZ1CPAZFePHefUgMBKjPJDEYGUGG19ZlOPAJNdPXacUwMCBSqIW5DIZNcAOQ/jtYDHeRmBQEKA3+yB1FtBVNdWlBxTaq1Do0qzcHoHBJjsfDv4BYGjuG4+rlBAtGecQ3Zr6Swmuxb0OK8mBH5++qxw/v2dF2Frc7twek7ojgCT3R0TPmIQAn9qbIMPBQKFkCDpG5i2Z3zCoJoF52XYXTY4+zVgWvXDI6ehoX8Q7irKc5IRtzdgR3snbEV32WMX+wOmTWatKJPdrD1jkXqN4Xf778+eg50d3bA2Ow1lxOMhKy4aWnAy7mz/EOzDiEFKA4BaBDrFzWSyK4aMM+iBAEXnfQPf4Gz6IcDf7PphyyUzAqZCgMluqu7gyjAC+iHAZNcPWy6ZETAVAkx2U3UHV4YR0A8BJrt+2HLJjICpEGCym6o7uDKMgH4IMNn1w5ZLZgRMhQCvs5uqO6xdmaTICFSYTYbEyHCbU03L0Ag71PjwlmCy+xBMLkodAutzs+BuVJcl9RpHI++6N5va4G38dY2xX7w6dOdz8TBeK4KcXxMCN+dlwdOrKtyIToXGotDkg6WF8Py6FYolrDRVKkgzM9mDtGMDoVn0Rv/rqnIg9VhPtigpAb6A6rIhISGekvE5Lwgw2b0AxKf1Q+CzZYWQjNFfROzOwlzYkJspkpTTyCDAZJcBhg/ri8CStGTFgR8q01P0rVSQl85kD/IONmvzCuJjFVetIDFecR7OMI8Ak53vBr8gEKri87uMQ0Bp6ismuyb4OLNaBPonphVnPdB1UXEezjCPAJOd7wa/IKAmKuvAxJRf6hosF2WyB0tPBlg7SGrqtfoW4Vo3DAzDe60XhNNzQncEmOzumPARgxAgzziSiBYxkpGuQ2FKNvUIsLuseuw4p0YEyAX2l7WN0DsxCbSOLmX0Rieiv82a8VLwKDrGZFcEFyf2NQL1qCBb318DxzBCzA3oUUcBH7NiY2ybYOjcG/j2bxvmsE++wJ3J7gsUuQzNCFCwCJGAEZovZOEC+Jvdwp3PTbcWAkx2a/U3t9bCCDDZLdz53HRrIcBkt1Z/c2stjACT3cKdz023FgJMdmv1N7fWwggw2S3c+dx0ayHAZLdWf3NrLYwAk93Cnc9NtxYCTHZr9Te31sIIMNkt3PncdGshwGS3Vn9zay2MAJPdwp3PTbcWAkx2a/U3t9bCCDDZLdz53HRrIcBkt1Z/c2stjACT3cKdz023FgJMdmv1N7fWwggw2S3c+dx0ayHAZLdWf3NrLYwAk93Cnc9NtxYCTHZr9Te31sIIMNkt3PncdGshwGS3Vn9zay2MAJPdwp3PTbcWAkx2a/U3t9bCCDDZLdz53HRrIcBkt1Z/c2stjACT3cKdz023FgJMdmv1N7fWwggw2S3c+dx0ayHAZLdWf3NrLYwAk93Cnc9NtxYCTHZr9Te31sIIMNkt3PncdGshwGS3Vn9zay2MAJPdwp3PTbcWAuFqm7uxIAc2LlzgNfvTuw/PpYkJDwPKV5GeCqlREXPHB6emoa5vEOr7h6B+YAjGZ2a9lhuMCSLgMuSGzcKi8GlYEHoJJiAEmmfCofVSGHTPhpmmybEhl6EwbAYKwrCeYZeg51IotGI9G2fDYeSy9d4fX11eBouS4lX1z6GuXnitvgUeLC2E1VlpHstoHByBn5w44zGNp5OqyZ4dFwtVGameynY6tyA+Fr5zQzVkx8ZI5lmfm2U73jM+AT86Wgf7Onsk0wXjwRgkz02RE3BT1ARkhro86KKutPjAdBTsnIyGupn5h6TRWOTgg2g91nMD1jMSH0yuNoUPpx1Yx11T0XDBRA8n13r6+m8iuhIuOF6fCEyWl6i+DNH2GPYY/lpVmSzRHSubERMN37puBTxVXSHahoBOR2/JR2OH4YGYUXeiO7Ts2ohJeCJuCNYj0fxhNOLYhPXcGDUuSXSqEz0A6PyTcYM4OpnxRzX5mh4QUP1m91Dm3KmR6Ssdvig5Aa7JShfJMpfmjsIF0DY8An84e05RPjMk/kzJQojETxZvFn5pFkoHmyFrYspbUtv5KHwwfC5uHFbnZEF3jOchn2OBr9Y2uZVfmZYMKzLFRmYJ06NQhvVMuNqfboW5HEjHT5Cvp+CnWVIejETEektuOy9VR6GMnEgYAV3JHh9xpfiYMOkb/3xnp1NFE+LjgX52e2TJItjV0Q1dY+PCDTJLwi9g3b3ZUGstDHT1uSULS6uGFTdvgOKFuRBW8xN47Z2GuTRh+ICoDhmBtMKlEB7j/TuRvgflTKSOcPky9J05CCPTYw7FpMLSLz0Ha658ec0d73jr72HbiSt9RQ+Im6MmIbVsmdzl544f7+mDV72mCrwE5y84398LcrL92ghdyW5/s4eFhEg28jLeSI1NzXPnVlYtd0pnn9D7VZ37m0mywAA6eBlJO4xkd7Ww3E/C3Z+7HVJnOqC1ZgdcOOP+MJjs74KRC02QXOyMl2tZvvh7aqQfRs43uhSVCklxeKj3BJw403X13Dj0dU07pRvpOAuxGXkQnerfm9wXOKgpo62jAyYnJ21Zk5KSIKjJTm/2zTeugvhI9ZNK1ThDGYxkn7h4HmanrtwI8zdSJqz4JBJ94gi8/9NXoRO/gqYmpb99Z0YH1dx/ivOM9bS554lKhIRogPGmHXBsVwvA7AzIrZ9MDfdZluzuwLkf2ZCXZZvJz0+gp6e+puubnaqudpbS3uxFSQn6IuCn0qekyJq2HBbip/hUVwws/9L34VYcpU/17oc9v/01NLtwm/JfvnQJQkL1nWOdGZF4qMSnQgzeOZGlX4aHl8dAGOBb/cTv4P23jsCVueV5UCXb6SfMzXjZ1OgooJ8Rpu+d4oMWdI4G3ve6SLNnJx2/ga/mwAktWpiMxLfmuQ9fgd0HWgDS1sCNd1TjTLezzYwNw8yYBBFFLq4gzfTokHvqiQ5oOnECmo68Du//9hU41DgNqcsfhhur3R/MExc73PPzEb8goPub/S+tF2wONEpn4+1ojM5ID2P9gpYPLxoSKjFpib1BR3sO/A5OnqBv9S5IWvT3sDx3CWTAEXCkTUh4BIRG6P9GCI3Ea4wPO7d8tBZOvjU/39DRmwgLv3YfZBQXQtiRk05D+shE8VUDH8IbMEWdHxmDk+hQtiwVv+nRF0VP0/3NvvnQKfjdmRbVbWgccLnRVJdkrozhcYnuFRpE70E8Gp+WaiM9QDiE0eN4ZtrtmzgiLhnCovS9OagGEXFJbvWMLL4NNnz6YSizz8aHYz0plcSHe6REfrcCLXxgX+dFII4Q4fU23d/s1IAp/LaUsvi4OKhaVil1ynaM3GbfaJKYIJLNETgnIpGsbtb1EZzuuB7WLP8sbJjYDwM4hC9Hro0c2Q+u/oSR8e4kdCvPBwciYt0fSlOjMZC6dA0U5MZAEn5qhC3FSUV8TLWebnDju9TDwgfVCogiyktLTFVPXcluX3obQd/32UuXISzUeQkuKdH9RrKjM4PpyQ+4bXjUVID5qjJRyRkQlZIFtIw2b91Q84efQswn74OSa++B3Jk+6DnyCuzZds6NRNEpxixnxWYXwlBrjfPKQddb8M5vAa67ZQ2U3LwcwvAbvnn7a7Cn3nl+JRSHJVEG1dNX/eLLcjzd3768jmhZupLd7lTTht8l5Ot+/YJM0XrB1uZ2eKcluCd3kgoroA8n6miybc7we/jwa/8L5rcPuUOWuHApxGbmu5/Q4UgYzhYmFi2D/jOHnEofb3oL3sefrKFvRXJJNTr+6L+kJFsHPuGEgK5kd7zSj4+fgQJcS/S2nkgbYX5wpBYOdl0M6K4S/fxIj8mEfEeye2n1dFgkfHQpAWZ98HkjWkeAaCiKT4fkEfE+GY5OgqMTuIbgg3p6gYRPCyKgmuyNg8NAM+2iRiR+/P19cGtBNjoRJEL0VVdayj89ewkaBwahtm8IWoZGYBY96wLZfq/Qn//aiAS4EXeTLY1w9kBzxGAUt47SbrLdk1HQ1evq0aYcrVO9A0A/USO//PWRcbZdbwtwU4ycncfdblTPXYNhMHmhTi5ZUB2nbaqd464OUmJNbBm6Mqo7fdHdU9K1hHbkhhYLQZdVr8x6fvtOeH7bTi3X4bxeECAy3YE7xsrDp6AwfBZobzvZIJK8CfeK70MCHZp2XW33UqgOp9NDLsFd0WNYR9rPPr8sSltaWy5FwLaJaGjFfe1sxiBQmJIMTc8+IXQx7hUhmPRPNHk5BP5zgpbSYoHWQ/OQSMMoCtFvMjGIi1ifX4xf2YBDD6gc3H/fjeIaY1h/NnMjwGQ3Yf/QQmUgvB3pAdXCb3ET3kHSVdLdqUb6snyUEWAEjEaAyW6aX01fAAAgAElEQVQ04nw9RsBPCDDZ/QQ8X5YRMBoBJrvRiPP1GAE/IaB6gi4LVWKzY3Evphc7frHfLQU51qRGzS8jkZQ0ra+zzSOQhEtcJCVNk2BmNlqK68MZeundD2auuTF1o73q+Q672Wi/B93rrvtFXDkhVTtyPyf/Fkdr6Rf3lVBN9k+gZvwjS4ql6uR07PYt221/kzTV3UW5mGcRJDkQ3Z6YQKjvH4Q9F3rgjca2gHes8QqMSwIaYm2MGoPSiBlYhHrs8bisRdaB69etuH5NzjRn/Cgjba9uPJL7jugJrOMUrrPP2kQwp/GhRPVsxPptm4gBWp6zslWlp8A9i/JhCW5bJbVkVyOnsX14n5NXKTmbkX22rAg+gTEVPBlp9TnGYfCUVuqcarJLFeZ6zL4Rho5/Hkn+UHmRa5K5v0lvjlRt6LcyMw22NrVbRjt+beQk6saPQ6mE/DJJONOvOnwSdeNRO34qBjpxXdtoi0ZSb0DvufVYzywMDOFo5ABEQSPoV4n1JA+6HVjPCZOPSnyNYWlKItxZmAd34UvNk9GLj/aJhOPGMHIN751Q533n6RpS53Qlu30jDF3YGwCOlVubnQ70dPzye3sDUlm2WEF0kFIYg/tDhvHd6NnoDboR36jV0bPws8s5+DYVf3s2XQ1E4HgFJXWkfLeG9MNa8L4DkR4ED8SMwZKYUHjjsrh8uFQdPSNivrObKksUybCtyc6AVZldsE2B27mWVutKdnvF6HtEaujuqeL0pn9m1VJNwxZP5et5bjWOTL68rNTrJSYHuqG37gDuevOadC5BOtL8XwrjIXlRlVAmkpJuGjzrljYWBSd+cNM1bselDgyjSmy/QgGSypBRWF++FOIXLJIq0umY1uGp1wsYkODe4jxFRLdXqTQlKbjI7jgZ54h7x4UL0Nk1v5+7dPFiJ914GtJTbDijnnwG3BNzl7iE6jPDHQ3O21sdKxB3LWx8/HOQG30Wdm/+N2hwGOmNYL4olHuKQZlmvW1yqBdG3aSkUScvdwNcd/sGyM1FVZ0J3Hdf/2fY/+cD0GffI4PfpSRBTfWMiJcQ6tC74gaWTyPYxyrdH+6Hjx6dq0V4RCRUVbpHOXLcEKZ3lcXHgiprQsNxiggjZ6OjY2D/SaVZjUOdYLTpkQEY65KLdpMARXegeIX73I4NikszUzDeJ77jUAt+UwM9MDXssqISVw03PngfFKUNwbkPtsDppmnIWP45uHXj4qtyWleuOIUPCvoFuy1JTUa1Xfd5lBnczTmKAU7oJ2ekz0gccQx0KpdW63Hdh/Gb16/WVMf0aP/v9NLUAJnMU6PySyaRxf8V1pShLBeuRsoFfZmSkniWuZaWw9NjEuqy4eNwYc+b0N6xH8604lJQWC8koKx0US6p4zY4yUlPS0lma6mQyfJW5+bApxYXQAJKrLladkYGTE1f2bYcT9GOJNLcUhwHtxQvdM0q+XfmlPzWYskMLgd1J7tIJTylWYZPvWC0GSmJZmpo1GJYdWc1wIlX4ETcw7BGJsLTND4sSI5ab9FJSbIO1kLNXlKXDYfIuASIX7gKMvBOGjnXbBPMdLRg141/qLwQSpMTMUqW+05xigAzi293sogIXLOQSOMCl8c/M2O0qQmbnuzHcG0xGO0yRlFxt3DIWP9ZKA/DiDDbaiHs0+4p7Ecuk+Ls1ITuZJ+ddKWvQ51KH4UHH0ANOjw02/sRbNvlrpU3NSiubiPfWvOeqaKVl8uXYGTMfZY1IjISdQnmTSqNkpa5fygoyU2PZp3tc+9+BEtTE+HZa9XFJRtC77pgtLBo92FfWNYdGGghFToxQERPeAIUoDY8vhMgMh6jriDpHAdx4bEJKPOs/8QXqcPOTMgsuZ17E7b9dj/EZK2B1bfcABvurIUtfzoJjjFpow2YRPTn/fFWx0XIiYuB29HJzNU6Os7DzNW4B9HR0ZCV5a7BeA696UjpZjWGOVuIMdo9WZfGgCm6k50isHpyq41Dt1tPdrQ7OCd4pPTUM6rXQBISPOn2v4cHb7ejUghrHv8qwAvfhxoHaXHKr3foJ6pBOM2k95537qK0ZbB0URoO2z+C1qZu1JnrglQMyrkcA02mwklwjF0q1U5P/R1o5147XQ9xOBtflRxv+9fRWtrb5/6kYXx8gjuZT3b1wH8cq4OoFeWQHu55vvxcn7vruRK8dCc7VaZHxkMoNycH6CdntP76TovLjSaXOMCOR6XlAEktX3IYzvcdeAW2nbEP/MIh95YvQ0VWB9T96XVoddk6EC4xMtADghiMwDp8rsal6CyUkL4HUkeXwOnDtTCeXg0lGPhltvEsuIY6CJfQndejnv4qs3vkyqjnh4dOwjOrK52qsbQcZ1kdzD5Z53isC9/sVMYIckTqvGPasUnHMZPyFnt+lCgvTzIHhbgZVFhR8pX/7mHUK9c4qSFZIRMcJKInFjnfHFO9DdDRVHv11wA9I/QJMwY9jedgxGEMT3rz8Xnu67p6NCs6OdPdMab3PXj/D9uhdQJJv/4+WFmaCCM1W2Dbnw44TdDF55bYQjZbwcgXhOTSldpZ3A9ilOn6Znf0jX/tTDN8Zbnzk06ukVubO+Dt5raAdJW1t6n76gYHuTbajqfmQ2jaRbjUOz/cm08/Ds2vfRPmo9dfORNCo4GMAuij6RaRa3iogFAdMf+lNKwnTrRdclhGG/GiGx8anwLTmE/0Gh6qGTCnvocvJ9rsdWdRPm6A8T5zvh0fEDvP42eQQaYr2R194//Y0Ao02fZoxWLJnUB9OIypxXhXh1AvnobugfxGJylpUTnpFNxF9qW4CFSV9T4RSYs4b45GwlsH6BHg+hhQdseQjPTD7+wWzlQSHgJfig2F9FDvm1lHcAPMzzpn4Xj7CeHygyHhAI5eX61rhr0XLsK9iwqgNCUBZdPdHcpo1Eox3l7EiEcko26UqZaSJiLH4aSDN6MJOldLioyAaPTNtts0xoIjslvVInHX2Poo2lE2YdvhJmUfk2Y8/s6irLS/LBOVZEnffn3UJG7Bdb9JR0jbHnfmUT1JcZYNnaLQsy4Rl+AcTYQTUtjJ8eTSd/9JKrnbMdV3Dg3RHYfpbiV7OEBiFfRju4LAFO55e28yBvYgSWib6CJ8yy+8KiV9DknThPvE21HF1Z1exiJIBH59Ig4+wLqSbvxi/OVgPbtxL3vTzBXdePo/2zwC9BYfn3F/4bliZAQnVJPdtbL8t3YESHu9BolNPzMbadn3Y8CKoyYIWmFmnIyoGwWJEDVDZuNFK8PpGAFGQD8EmOz6YcslMwKmQoDJbqru4MowAvohwGTXD1sumREwFQJMdlN1B1eGEdAPAdWz8aSuQbJR3uyXtc6xxAtxZ09lWhKk4i4guw1OkkPNldjsrnra3soPxvM2RdnQadSMD4VGXHKj9WuzGSnKXqknLr1dDsdAlBiP3WJqst76ZAHqxZehSlO+wwaYcdwF14gCoLV9A7gkN+9TQWqzUg44jtfoRFUnLRJt6smORBfRjbeTnZxwvlG9FNbnZsliREQ/iJ5FjnrasomD7AQFW3gobgT3sk/btNgdjZa6dk9Gw1sY0tnfa+1l6APwmZhRW2x210cQace/ievwZogj76/bg2SiHy4vhntQgNKTyCrpxW9G99ojV3d1rkOyi+jG+4XsSsF8dOlij0Sn8iJDQ2162jRi+PGxWnivzXGzpNIrBkb6ZCT5Teg9Rz+KAiNl5FJ7T/SYzdGGNNmP+WF9m5xobrLpxl8JaiBVT3rTfzVuCLXto231bPGjt59U/fQ+RqPWf7im0usbmupBwSP+cc1yeGz7HsO8R1W/2UWAs3vY5eLm/jsKPQvnO5ZHo4Cvr1xqe4t9EICE/0zJQrgXdclEbLrlJMxeaBBJClURU7AiMQoiipdAaKKYJjvh9x+n3KWkK9OS4b9fu0zoupenJ2C68Rhckgs1FJaA2nPDMH51VEoPhZuzkiFiUTWERHjfEHIBd0VqiXQi1AidE1GAiL9dsUSI6Paq0H2+LicdaOOXEaYr2e0bYciHPjLMddAHMDjkLGYYim/2BBTmI4tFn+Iv4qaZvRgmx/HbxghQfHGNTImwP67ljnW2QG93i/PhpCWw6vZ7oGRRLhJoCPoa34M9b+2AnqtbBy6PD0NkbxukZOSgeIU211SROlLlBjvPwmS/q5ptDCQVV0MZCm4UL0qEplefgwMO9+yl/k6I6WuHxEJ3+WRXHIjsgW4bCxbgxpdEp2a43t9Jic7nKXEZesAFBdntLZeS2aVzI6Oj0Ng0v3trJaqdOFo2qtjcW5wPFOggGG2wtQ6ctOjCFsK1f/VVqEjqgtYj22E4aTmUl90HG2d74TWUe7JP54zgQyIiKR0ScL+43jYzMQbDWE9ny4VVjz8Fy9Psbr3SOoGDzSdt2vYkbRXMRkPyezG2m6vV1eNDEiefyZKSkiR140MxBJRR5v669fGVKcbb7QqG8K6Xr0gX9/11zWvmvydQ9316xEVmKHsV5MWNAynWvL/9LTjwx1fhLCrURGYVgitdpgaMEXIc62x2UtO5guk09J15C3a88hxsOyJNdEpHaqoT/fNBQMzcH1rqRgEc1dpiFKwkjtC/epuuw3iqvMiMvadGpmHI22A0Sd33ji2w5Xtb5pubVARpuEI51dHipMVOCTzpzvsSL0kpaeiG5g+viC5kLPV8tSkMhhHstjLT+xK0HAa03OZtyU0ur9Ljur/ZlVbINX2xxOZ/1zSB+Lc0iRxagvrx1z7wSciYOQuHtjsrtlKqGQzeMD3mHKtbDxy0kpUi3wS7hYWYnka2LtC9lp0oXqFFmIIC11vOohbCqkfw2z2tG0784adwxjiZMstB7YsGNw6o7yCafCaOGDEJrSvZaentEdSN//aBk6oxPdIt/02oulATZJSdtCKi/9Vf4+RXN5z+7Y/gcKu08AGptkagdrzeFqkxKGOwB3Uk/LvG1KssvdPSYePILgO06HT9ZnfUoJO6KUPQ22jxomKpU3PHjgYp2SPjJSZ1wnJhGRE9F11kz9TAIEo0l9mW03F0dPrI3PIbHYk0IEAEXUf2oeSx1+ZPan1YCF7Gr8nIC65teBTdYp0Df+TnefctiUOJNqNMV7LbnWrGHHyAHRu2IDvbYzt/UdMIB1GAMhgtKiUbSPvdKdpKfAkszL0SNCO+7Ha4bk6Mtw9OdyDZHSa2I6QeFjoAFZuZD7SEpjZOGYVsDnYjN++fn26AJ9EdPNGBvN7ub8Ll3KD+8y52/HUlu/3NfnbgyiYXcicUtUYE4fUGuZDGoqWYNx2NapIxgkrfmYPzS1uDO+Dt/7XDa6XjshZCQr6YLLfXwrwkoM8FcowZbD4lmbJn+3Pw8+2Sp2zti7QA2an1u3EYXpAYB+QWrsRoU4xRpivZHRvx/SM1QOGbyf/dk5GE9B9QivkVfFIGqpz0IRzWHXp/r6dmzp27LSQW1qCnnKj1Yuy3X3ZOQlvnAdEskunGcPfVVwTrGB8yC3eiP1+JW4xWyaJtB89CLGxt7IfRRjEc5EsKnDO/RhnpUxcH4OnVFRjyzHNYM2oV7f2wb4QxopWqyT6CcadpFlHUSBP+8ff3wUO4I4gcCKIdgteTdnYDPuHqcNsfTcgF+gx8k4Kn9e9Dw6EzMhYlmichFaWaPRkJPJJM83Gc+ET/Q09JvZ5TUkcqbDAsGjfBAMpIj3tcwqH9DDtxh97uqUg4Nyt+f3itcIAkOH6xHza9txeuz8mAkpQkqESnMMehPTWD7u/96Ab+toNP/BBqznvjU9+kNkVm1brxAYJ9wFSTtow+FDOCMtLuW0dJdXYvkvx13OLq7z3jq3Ezzn+NHoVMCX172or7zkQMvI9S02zGIEDqsk3PPiF0MdVvdqHSOZEwAq0oUvF/RnCnGIpCFIbPon78NIxcCoGWSxFwwURa7LRXnX6xuOe+BOtIuvFdl8JRNz4cBk0osiHcARZIyGQ3WSdPY8AIivriz8gvIpDQaOP4TKTtxxYYCHieLQuMNnAtGQFGQAABJrsASJyEEQgGBJjswdCL3AZGQAABJrsASJyEEQgGBJjswdCL3AZGQAAB1bPxpK4hIkxx+5Z5X0rapP9QeRHqxiejbvy8KMUgOhTU9g/C2f5h2IfOBvXoXsvGCAQqAknoH78hLwvK01Ku6sbPb5ChrazkCr67owveaGyb8xJ9enWlkJS0FmFO1WRX2hHVmWnw7etXAulquxrpa6/NzrD96GGwpaHV5i7LASNckeK/zY4AxUV4YkW5rGY86THSy45+yzHQynP7jhvWJMOG8V+rKpMkumtL6WHwAEox//iWNSAnVOmah/9mBMyAwKZlpTYteE/BIRzrSTESrskSkwT3RfsMITsN2V33+nqrPO2Qe6xCf/VUb/Xg84yACAIUDo1eUkpNi36d0msZMozPx5hXUtZx4QIMD89v6MhdkDOnG0/pSZ6Xvm1ocwEbI2BWBGgnJ+10c7W6+nqnQ+Wlpa5JIBE/YY0yXcluF6/w1Jjunp6500R2V7sGdw8x2V1R4b/NhMA6vEeltrQODg076cZL1Xl0SttONqky5Y7pSnYSr9h+3+1y1xY6XqRA8EKoQE7ECPgYgUINmu/3YZgw+hlhhnyza2nIKg2a3Fquy3kZAVEEMgSEKkTL0jOd6cle389r7nreAFy2dgSG0U8kEEx3sn/30ClNsdoGpwIDyEDobK6jPgic6lUfCIPyEke0lCHaKt3JTsHjD3WqV4htHNAmvyQKBKdjBNQiQKNPtXqJHaPjQByhf/U2XSfo7JWXm5XPRSlp+skZaXL98WyL3Gk+zgiYAoGe8Qmb16frOvu1q6q91o/0F40yXd/sdpIP4fKCJOHJddb1d7XlXWMT8G/H6qTzGYUOX4cREETgTfRzP+QS44Dkwh1/UkXV9BrnQ6Ir2e268fTkozA3okYbY146WQ8HNAz/Ra/F6RgBXyBAo9AfHq2D4z3i4croPjfyHjdkGE9g0sYW8hb6RIG744wdbHr7H+zqhZeR6PSAYGMEAgmBLiQ87Uq7tzgP184XwgIZz1FqEz0cKAbiYCA41XyMETA6R8eE+4J2sG3GWcff1DWhbnwCRIfNDyqm8RzpxlO8LDZGINAReKOpHehHI9tK3OaaGOn8Tm0ZGrVpxzvu6ny3uR1OYHART9avUTde9Zud9uTST6mdHxkD+rExAsGOAI1U93XOu4N7ai8tvem9/KbrN7unxvE5RoARMBYBJruxePPVGAG/IcBk9xv0fGFGwFgEmOzG4s1XYwT8hgCT3W/Q84UZAWMRYLIbizdfjRHwGwKql95Ic6sqI9VrxX9Z2+iUhrTlKtOSUEo6eu744OQk1PYNua09ei2cEzACJkaAnGrKkhNQfzF+rpbjMzO4ZD2C9/sAkKy03Uh8kqTWPRn5tdCmGbWmnuxIdBHdeDvZycHgG9VLgaR25YycDA6ii+yPj59hDzo5kPi4qREgdeSHy4vhHvSi86QySx6imw/XwJGrjjTrkOyevEup0eSKq4Xshg3jH1262CPRqTEk3EdPuJduWwe35cvvhjN1b3PlLIsAjVpJAp1egp6ITgBlxETbZKcdg6XoDZyuZLfvdMuNi4E7CnOF20KjgK+vXAq3MOGFMeOE/kWgNCURnllV4XUo7lhLus/X5QSJbrx911tcRAREOvjC2xs8MzsLrj/7uViMnPHFisUcKMK/9zBfXRCBjQULgAjvaNP4fe74kyqqLCVZ6rAux1R/syupjVxkl67ubmhsap4ramXVcifdeJLnvbc4X5OslZJ6clpGQA0CNCSnGAeuduTYcScp6apKd2350FD3cGiu5fjqb93JTgEgM3EYr9Yq0vHJ56y1r7YozscI6ILAktQk1eUuRhlq4gj9q7fpTnaRGXtPjUxziPbqKR2fYwT8hYCWEE603OZtyc1X7dJ1gs4XlSz2svboi2twGYyAFgTCQkxPI1vzdK8lKXL0TUyqxpI2+bMxAmZGoHFgUHX1yLGGOOLoYKO6MC8ZdSU7Lb098u5HNvkdtXakW1zTS+01OB8joAWBrjH1LzPSZiSO7ELlJ71N1292+9Kbp0bkeJCSpnxHmeye4ONzJkCAvOBIUs01LHlqqnd38rjICMNaoCvZ7U41Yw4+wI4ty82RF5+kdL+oaUQBSvUBJgxDkS9kaQTIzfvnKKj6JLqDJzqQt6S4yCsu51RIu3ktVCaBrsN4+5v97MCVTS4ydZA8TPp2rzeckzzHBxkBsyGwG4fhW1Tcr7QpxijTleyOjfj+kRonNU25BlIYndfqW+BvPthvyKSFXD34OCOgFIFf1zXD07sO2SbcROy9ts65jTAi6bWmUT2MH5meFm4UVbK2bxAef38fPIQ7gsiBIBrdYe1GIXBISroOt/3RhBzPwGvtVs7vLwSOX+yHTe/thetzMqAkJQkq0SnMcWhP9aL7e/+FHni7eT5wyhAGjPD2kOjTKCUdchnNGzDPb98Jz2/b6S0Zn2cEGAGDEShE3/qmZ58Quqphw3ih2nAiRoAR0A0BJrtu0HLBjIC5EGCym6s/uDaMgG4IMNl1g5YLZgTMhYDq2XhzNYNrowSBJHT8IAmljJgoCEXNtFF0eqL9C/X9Q0BLn2zBiQCTPTj71a1VpO93N4og3oiCn5Vp0uootBljHwp+bm1qA1pCYgsuBJjswdWfkq25JisdvlZV5jFeOGUkRaGb87Jsv10dXTaVXy07FiUrwwf9hoBqsm8syIGNCxd4rTgFp7cb3UyUryI9FVKj5jcAUED6OnS6oWFkPbrWGrHdz2vFgyABCX/cX1oI9y8uUNwakvzOQlkwcln+ED292JQhQJ9JS1ITUZcuGfLj55WaxlF3sXFgBPagey3d63Z7EPtpdVaax4uQa+1PTpzxmMbTSdVkz46LFQoSYb84CeZ/54ZqIF05KbPryZOe9o+O1gnHtZYqi49dQeAzeAPdp4LodvzKUEDx71dXwiB6btn1zRlbzwjQA/KZVUs9cmNtdgY8WFYIr+DmGXINJ8vDh4NI0BXPV/d81rDZeBpGyhHdsYok3vet61bAU9Xu4nyem8JnHREgXTMtRLeXRUEP/huq/FZiBCA2zwjQ58/LGPNAhLSE66OIq1GSVFRzXclu3+K6CEPg0HejErujcAE8ULJQSRZOexWB69Av2xdEtwNKb3gluv9W7Ah6W39lWZki6XMi/IoM4x6iqofxIh1q3+IaEza/6cUxX8eFC3AJv2Hslpyc7CQl/Qi+nXZ1dEOX4C4ikToFe5poxPo2nEuJwwAEvjSK0END+fc1xBrzZX3MVtb9JQWQhkuZjtba1u70d0F+nlu1i5KdtebdEvjwgCFvdnqCyVnzuVaw/1zT2Cf0XI/z3/II0C6rGzGElq+N1uPX4duLzR2Ba3HUKjV0v9DVBS2trbZf/6C0Tt0oTk4bZb59/LvUmt7sm29cBfEapHeqcYbyV3VNRuER8NdZmiq9hu6LhlVg9N2s2GgcaU34origKSMtJlJ1Wzbgd/4i3PLtKmmlukAPGXUlO11X6onnoT5up4ycwHC7eAAeKEnxHPZXS5PScfK0DPdoM9mdUaTlNbVGgR2NCu6o6zBeLQCO+TpHxVQ/fHGtYCgjB5dE9TSKwcfmjID8R6q5kNKd7H/BCR0topGjGByPTRwBvcmYKeMnIV7D4Et56qJ6ufPzI2NAHKF/9Tbdyb750Cn43ZkW1e1oHBhWndeKGfXexjJs4IRSoPQfSaqptZPoOUocoX/1Nt2/2akBJLUrZUlJSVC9coXUKdsxcpt9AzdlsIkj0D8xBZn4ba2X9U2qD4igV538XS5pyu3r7AFaa3e0yiXl/q6a0/V1JbvdqWYE3wazly5DmEt42vhY+e/LGUxPfsAkvs8mjkATvmXICUYv6x1nskth+1scvWbFxECRQzTWuLg4qaROx870DnhN46sEug7j7U41bfg9Qk8+Jba1uR0oNA6bMgTq+vW7eWpwqHkaFYDZ3BGoQdK+fOos7iOYcj8pc4S0A04GC9kd20jbJUXe0rQR5tmPj8ILx+tkIOLDnhCgHWr2EZWndGrOnRsaBda2kEeOJqIf277Htj3YmxHRXzhWa6hsuuphPEVsoVlEUSMSk278rQXZ6ESQCNEO7pykG0+RMGv7rkSOYbUUUVTd09E8x5azLfD5pYvdT2o40oATpX9SEfFEwyUDMitt1/7W/hOoAhSN21sToQKFQhKjnJ1uKOTTwa5eJ6KfFpjRb9cY0Vg12T/G/bj0U2I0UfdOy3nMQj82vRD4Xf05uDk/x6deWXsxqEGzxptNr/aasVx6udFPlCPEiyvc0K81un6z61dtLtkTAvRQffHkWaC5El/YW7gi8ht2WfYFlH4tg8nuV/j1u/h+nBD9D5ww0qr6Q8tKr2IMsxn+WNevswwqmcluEND+uAwNIb+x86DXGGJydfuwvQue2HGAdejkAAqw46q/2QOsnZatLk2kPrPrMNyG2n/0y0V5MG+2G2eT38PJ1z34nc4WPAgw2YOnL2VbQtFBX8Vv7j+j38Ka7DS4Dve7X9GNjwbSGqClun7UjT9+ccAmhEgiFbwiIgtnwJ5gsgds1ymvOMlCGzHrq7xmnMMIBFSTnVQ0s1HIwJtJBRugjfqpDmuPtDbJMdm9IcnnAxEB2que7/DpRBOmdK+77hdx5YRUW2kERp9lak012T+BOmePLCn2et3bt2y3paHh4t1FuZhnESS5OBnQeQKhvn/Q9p34RmMbDyO9IssJzIpAFSrx3rMoH3Xjk2zONa5Gn0j78D4nr1Jaiyf7bFkRfALnVDzZ8Z4+cIzD4Cmt1DnVZJcqzPWYo9smSRs/VF7kmmTub9KbI1Ub+q3MTMMQRO2K/ellC+cTjIABCJDH3J2FeXAXvtQ8Gb34rsd5k3DcGPaDI7XQi59XRpiuS2/2jTDUEG8AODZ2bXY6PHvtMltEEjZGIFAQ2CsS8I8AACAASURBVFRZoug+X4NbYldlphrWPF3Jbm8FfY9IDd09tZLe9BRZg40RCAQE7sWgmWr0FktR088o03UYb2+E42ScY8NIN769Y95Pfml5mZNuPIFHseG2KdhwYxRwfB1GwI4AjWAfqyx1A2T/ofk4h9HR0VBV6R7lyHFDmFsBPj6g+5udJisoIoycTaLyif0nlWY1a5VLwcLHTITAEpTvppGolHm6tyk9BTgljjgGOpUqxxfHdH+zb16/WlM906PVa3JrujBnZgQEEajW8N1NYdGUhkYTrJZbMt3f7G5XVHhgGQcUVIgYJzcagWRcSw8EMz3Zj+HaIhsjYGYEAiW2ge5k/9y7H8G3D5xQ3VdDLF2sGjvOaAwCJy/2q74QSVgRR0SkrFRf5GpG3b/ZKQKrJ7faxAT5yTuq41HclMHGCJgZAfL8JAcyR78Sqm9UVJTt58nGUZKNOEL/6m26k50a0CPjIZSbg1su8Sdn5B6ot1SP3LX5OCMgigAR/ScokPrM6kqnLCuWOf8tVZ6RUVx1H8ZTAym0jRKJXcpDvvLfPVzDPvJSdwgfMx0C5AuiVC6dGnEWRwVGma5kd/SNf+1Ms3CbtjZ3wFO7DtqGN2yMQKAg8D18Of2ipgE3t4j5um/HB8ROhaKtWrDQdRjv+A3zx4ZWoMm2RysWS+4Eor3WtRiE4BBqb9PQncUTtHQr5/UHAgMYIIL0+vZeuAj3LipAKekElE13n5OiUeu+zovwIkY8Ihl1oyzkMpq3iz2/fSc8v22nUzIiclxEhLeskm/npMgIiA6ff85MoxoqkZ2NEQg2BMizLjHS2TFMasTqygkpHKR4Uoix4ZuefUIqudsx1W92GqKrjTxCYhX0Y2MEgh0BeouPz3j/HDWCE7p+swd7R3L7GIFAQoDJHki9xXVlBDQgwGTXAB5nZQQCCQEmeyD1FteVEdCAAJNdA3iclREIJASY7IHUW1xXRkADAqqX3khdQ0Rz65e1jU7Vo0gklWlJkIoyPXYbRLUae2x2Vz1tDW3jrIyAXxFYgHrxZajSlJ8QP1eP8RnSfh/B+33AKegmqc1KOeA4NqBzdEyTRJt6sqM+nIhuvJ3s5ITzjeqlsD43S7YDiOgH0bPIUU9bNjGfYARMiADJRD9cXgz3oAClJ5FV0ovfjO61FGqLbB2SXUQ3Xoseo2HD+EeXLvZIdGpwZGioTU/7pdvWwW352SbsSq4SIyCPAI1af3zLGttL0BPRqQQKHvGPa5bjCNfzFlj5qyk/oyvZ7R52uXExcEehZ+F8x6rTKODrK5fCLUx45T3KOfyCAAWIeGZVhdehuOt9vi4n3bD6qh7Gi9TQvhGGfOgjw9yfK719zgofkegznxB/5fsmFn2Kv4ibZvZimBxyOWRjBMyMwMaCBbjxJdGpir19zpJqaanuASHK0LeddnkaYbqS3d4AOZndickJaGya3/q6smq5U5uzMSLMvcX58Fp9ixFY8DUYAVUI0JD8Xozt5moNeG+TlDRZUlISSJE9FENAGWW6k51ivGXiMF6tVaQnA9Srzc35GAH9EaAAjmptcVI8EEfoX71Nd7KLzNh7amSagRMYnurB5xgBOQRWatCNp+U2b0tuctdVetz9Q1ppCTqnL5bY/K/zJbl4RkARAmEhpqeRrT2617ITpaW0CFNQ4Ho2RsDMCDQOqNeRo8ln4ogRk9C6kp2W3h6x6cafVN1XR7o5SIRq8DijIQh0jalXWXqnpcPGkV0GaNHp+s3uqqPtinw4SlOVlZa4Hnb6+yiT3SM+fNL/CJAXXNvwKLrFxjlVpqigwGvl4nC52SjTlex2p5oxmXXyrIwMj+38RU0jHEQBSjZGwMwIkJv3z083wJPoDp7oQN7MTM/3N7Xp3OCwYU3TdRhvf7OfHRgCpd/ejQjC6w3nDAOCL8QIaEFgNw7Dt6i4X2lTjFGmK9kdG/H9IzUgsqONJKTJieZvPthvyKSFUUDzdYIfgV+jjPTTuw7ZJtxE7L22zrmNMCLptaZRPYwfmZ4WbhRVkjThH39/HzyEO4LIgSDaIXg9aWc34BOuDrf90YSc0lGAVhA4PyPgKwSOY5DHTe/thetzMqAkJQkq0SnMcWhP16H7ez+6gb/t4CY7hJrz3h4SfZPaFJlV68b7ChwuhxFgBNQjoEQ33rBhvPrmcE5GgBHwBQJMdl+gyGUwAgGAAJM9ADqJq8gI+AIBJrsvUOQyGIEAQIDJHgCdxFVkBHyBAJPdFyhyGYxAACDAZA+ATuIqMgK+QEC1Uw2pa4gIU9y+ZftcPWmT/kPlRagbn+ykqjmIDgW1/YNwtn8Y9qGzQT2617IxAoGKAMVa35CXBeVpKVd14+c3yNBWVnIF393RBW80tgF5jJI9vbpSSEr66d2HVcOimuxKr1idmQbfvn4lkK62q5Hs7trsDNuPHgZbGlrhFdxYIOJe61oW/80I+BMBiovwxIpyWSlp0mOklx39lmOglef2HTesuoYN479WVSZJdNeW0sPggZKFNv1tOaFK1zz8NyNgBgQ2LSu1acF704y315ViJFyTZZyUtCFkJyF8172+3jqHBPcfq/C8191bGXyeETAKAQqHRi8ppaZFv07ptQwZxudjzCsp67hwAQb657XjC3Czv103ntKTPC9929DmAjZGwKwIUCSjp1dXuFXvVE2t07HKpUvc0iTiJ6xRpuub3S5e4akxvf0DYP9JpbsGdw+xMQJmRmAd3qMU48DVRsfGoA9fZvSbRYELKRud0raTTapMuWO6vtlJvGL7fbfLXVvoeBEO59kYATMjUKhB8/2+xQVAPyNM1ze7LxqwSoMmty+uz2UwAt4QyJB4q3vL44/zpid7fT+vufvjxuBriiMwjH4igWC6k/27h05pitU2OBUYQAZCZ3Md9UHgVO+A6oIpL3FESxmiF9ed7BQ8/lCnvEJseFgY2H9SlW4cME6QT+r6fIwR8IYAjT7tnnCuaUkunX5y1jE6DsQR+ldvk6+FD68sNyufm5MD9JMz0uT649kWudN8nBEwBQI94xM2r0/XdfY1q1d5rR/pLxplur7Z7SQfwuUFOcLLNbRrbAL+7Vid4nxy5fFxRkBPBN5EP/dDKmIc1PQa50OiK9ntuvH05KMwN6JGG2NeOlkPBzwM/0XL4nSMgBEI0Cj0h0fr4HiPeLgyus+NvMcNGcYT2LSxhbyFPlEgP2ynt//Brl54GYlODwg2RiCQEOhCwtOutHuL83DtfCEskPEcpTbRw4FiIA4GglPNxxgBo3N0TLgvaAfbZpx1/E1dE+rGJ0B02PygYhrPkW48xctiYwQCHYE3mtqBfjSyrcRtromRzu/UlqFRm3a8467Od5vb4QTGjPNk/Rp141W/2WlPLv2U2vmRMaAfGyMQ7AjQSHVfZ49QM2npTe/lN12/2YVayYkYAUbAEASY7IbAzBdhBPyPAJPd/33ANWAEDEGAyW4IzHwRRsD/CDDZ/d8HXANGwBAEmOyGwMwXYQT8j4DqpTfS3KrKSPXagl/WNjqlIW25yrQklJKOnjs+ODmJ8duH3NYevRbOCRgBEyNATjVlyQmovzgvwDI+M4NL1iN4vw8AyUrbjcQnSWrdk5FfC22aUWvqyY5EF9GNt5OdHAy+Ub0USGpXzsjJ4CC6yP74+Bn2oJMDiY+bGgFSR364vBjuQS86Tyqz5CG6+XANHLnqSLMOye7Ju5QaTa64Wshu2DD+0aWLPRKdGkPCffSEe+m2dXBbfrapO5Urxwi4IkCjVpJAp5egJ6JTvoyYaJvsNCkvG2W6kt2+0y03LgbuKMwVbhONAr6+cincwoQXxowT+heB0pREeGZVhdehuGMt6T5flxMkuvH2XW9xEREQ6eALb2/wBH6ru/7s52IxcsYXKxZzoAj/3sN8dUEENhYsACK8o01MTIDjT6qospRkqcO6HFP9za6kNnKRXXr7+qCxqXmuqJVVyyE6an5YQ/K89xbna5K1UlJPTssIqEGAhuQU48DVjp86DZP4QiNLSkqCqkp3bfnQUPdwaK7l+Opv3clOASAzcRiv1irS8clXrzY352ME9EdgSWqS6ossRhlq4gj9q7fpTnaRGXtPjUwzcALDUz34HCMgh4CWEE603OZtyU3uukqP6zpBp7QyUumLvaw9SuXhY4yAkQiEhZieRjY4dK8lKXL0TVz5blHTAbTJn40RMDMCjQODqqtHjjXEEUcHG9WFecmoK9lp6e2Rdz+yye+otSPd4ppeaq/B+RgBLQh0jal/mZE2I3FkFyo/6W26frPbl948NSI/z/P6+1Emuyf4+JwJECAvOJJUcw1LnpnhfQ09LjLCsBboSna7U82Ygw+wY8s8acZTul/UNKIApXyACcNQ4gsxAh4QIDfvn6Og6pPoDp7oQN6ihd7jtZ9TIe3moSoeT+k6jLe/2c8OXNnk4rEmLidJ3+71hnNKsnBaRsBvCOzGYfgWFfcrbYoxynQlu2Mjvn+kxklNU66BFEbntfoW+JsP9hsyaSFXDz7OCChF4Nd1zfD0rkO2CTcRe6+tc24jjEh6rWlUD+NHpqeFG0WVrO0bhMff3wcP4Y4gciCIRndYu1EIHJKSrsNtfzQhxzPwWruV8/sLgeMX+2HTe3vh+pwMKElJgkp0CnMc2lO96P7ef6EH3m6eD5wyhAEjvD0k+jRKSYdcRvMGzPPbd8Lz23Z6S8bnGQFGwGAECtG3vunZJ4SuatgwXqg2nIgRYAR0Q4DJrhu0XDAjYC4EmOzm6g+uDSOgGwJMdt2g5YIZAXMhwGQ3V39wbRgB3RBgsusGLRfMCJgLASa7ufqDa8MI6IaAaqeajQU5sHHhAq8Vo+D0diN5KspXkZ4KqVHzGwAoIH0dOt3U9w9BPbrWGrHdz2vFOQEjoAEBUppdkpqIunTJkB8/r9Q0PjsLjQMjsAfda+let9uDpYWwOivN4xXJtfYnJ854TOPppGqyZ8fFCgWJsF+cBPO/c0M1kK6clNn15ElP+0dH64TjWkuVxccYAX8hkIX39zOrlnrkxtrsDHiwrBBewc0z5BpOlocPB5GgK1raZdgw/mtVZbJEd2wAifd967oV8FS1uzifloZyXkZAbwRuzsuClzHmgQhpKZjEo6iebJQkFbVdV7Lbt7guwhA412R539vr2Bl3FC6AB0q8bxHUuwO5fEZABAF6W39lWZki6XMi/IqMFJHifZJG9TBe5Or2La4xYfObXhzzdVy4AFNTU3OH0tPSICF+XmXzEVTd3NXRDV2Cu4hE6sRpGAE9ELi/pADSYpyjuzSfc96iLbW/vSjZWWtej7rZy9SV7PY3Oz3B5KytfX7nD5Hd0ewTer+qa5LLzscZAb8jcC2OWqWG7t09F51046UqOoqT00aZrmSnN/vmG1dBvAbpnWqcoWSyG3U78HXUIJAWE6kmmy3PBvzOX4Rbvl0lrVQX6CGjrmSn60o98TzUx+2UkRMYbhfnA4yAAAK0vKbWKLCjUcEddZ2gUwuAY77OUTHVD19ci8tgBNQgIP+RqqY0/fLoTva/YPB4LaKRoxi8no0RMDMCpy6qlzs/PzIGxBH6V2/TneybD52C351pUd2OxoFh1Xk5IyNgBAIkqabWTqLnKHGE/tXbdP9mpwaQ1K6UpaWkQNoq+XVGcpt9o6lNKisfYwRMgwBpyu3r7AFaa3e0qmWVpqkjVURXstuX3kZweWH20mUIcwlPGx0dLQvGDKYnP2AS32djBMyOwG9x9JoVEwNFDtFYHcOPy9X/TO+A3CmfH9d1GG93qmnD7xF68imxrc3tQKFx2BiBQECgBkn78qmzMIgqsaJGsukng4Xsjo3+8XGxtzRthHn246PwwvE6Ucw4HSNgCgRoIvqx7XvQ67PLa32I6C8cqzVUNl31MJ4ittAsoqgRiUk3/taCbHQiSIRodLixG+nGUyTM2r4rkWMICDZGIBARoO3a39p/AmhDV2lKIlSkoW58lLPTDYV8OtjV60T00wIz+u0aIxqrJvvHuB+XfkqMJureaTmPWejHxggELwL0cqOfKEeIF1e4oR8mun6z61dtLpkRYASUIsBkV4oYp2cEAhQBJnuAdhxXmxFQigCTXSlinJ4RCFAEmOwB2nFcbUZAKQJMdqWIcXpGIEARUL30Riqa2bHy7q52PChetavRRv1Uh7VHWpvkmOyuKPHfwYAA7VXPR2Vlu9F+D7rXXfeLuHJCqu3kfk7+LWpNNdk/gZrxjywp9nrd27dst6Uhaaq7i3IxzyJIcnEyoPMEQn3/IOzBIPVvNLYBO9Z4hZYTmBSBqvQUuGdRPurGJ9mca1yN7u19eJ+TVymtxZN9tqwIPoExFTzZ8Z4+cIzD4Cmt1DnVZJcqzPWYfSMMHf88kvyh8iLXJHN/k94cqdrQb2VmGmxtalfsTy9bOJ9gBAxAgDzm7izMg7vwpebJ6MV3/YJMCMeNYT84Ugu9E5OekvvsnK7f7PaNMFRbbwA4tmhtdjo8e+0yoE8FNkYgUBDYVFmi6D5fg1tiV2WmGtY8XclubwV9j0gN3T21kt70FFmDjREIBATuLc5TpbdYmpJkWPN0HcbbW+E4GefYMtKNbznXOndoeWWFk248DekpNtw2BRtuDEOOL8QIXEWARrCPVZa64bH/0GGYvSqrFofxEKrw/nY1xw1hrud8/bfub3aarKCIMHI2i4Hu7D+pNKtd1D+k0vAxRsCfCCxJTZaNBDOD9zf95IwCnBJHHAOdyqXVelz3N/vm9as11TE9Wr0mt6YLc2ZGQBCBag3f3RQWTWloNMFquSXT/c3udkWFB5bhU4+NETAzAsm4lh4IZnqyH8O1RTZGwMwIBEpsA93J/rl3P4JvHzihuq+GDIyFpbqSnNHSCJyU8BIVBYQkrIgjIlJWomXKpdP9m50isHpyq01FOWlPdrS719NpPscI+B0B8vwkBzJHvxKqVFxsrO3nycZRko04Qv/qbbqTnRrQI+MhlJuTA/STM3IP1FuqR+7afJwREEWAiP4TFEh9ZrWzTnzl0iVeizAyiqvuw3hqLYW2USKxS3nIV/67h2vYR97r7cIJzIAA+YIolUunep/FUYFRpivZHX3jXzvTLNymrc0d8NSug7bhDRsjECgIfA9fTr+oacDNLWK+7tvxAbFToWirFix0HcY7fsP8saEVaLLt0YrFkjuB+nCoX4vxrg6h9jYN3XnXm5Zu5bz+QGAAA0S8WtcMey9chHsXFaCUdALKprs7lNGodV/nRXgRIx6RjLpRFnIZzdvFnt++E57fttMpGRE5LiLCW1bJt3NSZAREh88/Z6ZRYprIzsYIBBsCtMcjMdLZMUxqxOrKCSkcpHhSiLHhm559Qiq52zHVb3YaojsO091K9nCAxCrox8YIBDsC9BYfn/H+OWoEJ3T9Zg/2juT2MQKBhACTPZB6i+vKCGhAgMmuATzOyggEEgJM9kDqLa4rI6ABASa7BvA4KyMQSAgw2QOpt7iujIAGBFQvvZFc1EaUk/ZmjtK3tOZI+SrSU52UOWjZoQ4daur7h6B+YMjmKsvGCAQyAoWJ8SglnYiONcmoGz8vnDqOqjWNAyOwBz3n6F6324OlhbA6K81jkxsHR+An6Iij1lSTPTsuVpHA3gIUyv/ODdW4A05aMXZ9bpatDaSj/aOjdar8jNWCwPkYAV8hQIrIJJRK+olythal1h4sK4RXTjfAa/UttmR5+HDwlEeuLCXHDRvGf62qTJbojhUmUf1vXbcCnqp2F+dT0jBOywgYjcDNeVnw8m3rhEhL2vHkOi7lTqtXvXUlu93DjgQnleps3VG4AB4oWahXu7lcRsCnCNDb+ivLymSFJ6UuRoRfkeFZz0Eqn9pjqofxIhe0b4SJCQuTTN7d3eN0PAaHQAkouWs3ChW1q6Nb0r9eskA+yAj4CYH7SwogLcZZi66rx/n+zsrIcKtdUXKi2zG9DuhKdvubnZ5gUjY9i4Hqmua3vq6sWu6UzD6h96u6JqnsfIwRMAUC16JCrNT3NsVEmJy8ssErKSkJpMhupHiFrmSnN/vmG1dBPO5yU2vVOEPJZFeLHuczAoG0GPVy5xvwO39RUjxQ1CS9TVeyU+WlnnhKGmXkBIaSenFaRsCOAC2vqTUK6Uw/I0zXCTpfNCBQZHp90VYuIzARkP5INV9bdCf7X1B65yCqz6i10auxstTm53yMgN4InLqoPrYB6TMSR+hfvU13sm8+dAp+d6ZFdTsaB4ZV5+WMjIARCDSgZ5taO4meo8QR+ldv0/2bnRowhbJTUhYdFQUVS8qlTtmOkdvsG01tsuf5BCNgBgRahkZsHp+01u5oi4uLzVC9uTroSnb70tsI+r7PXroMYaHOXzdpqfIuhTOYnvyA24ZHTQUYV4YRkELgtzh6zYqJgSKcWbdbWqp3h5kzvQNSxelyTNdhvN2ppg2/R5Rqam9tbkeV2Q5dGs2FMgK+RqAGSfvyqbOK4iOQgvLJYCG7I6A/Pi72lqaNMM9+fBRewAgbbIxAICFAE9GPbd8jFLeNiP7CsVqgTwCjTPUwvnFw2DaLKGpE4sff3we3FmSjE0EiRKPDjd1IO7txYBB144dsjWfNeFFUOZ3ZEKDt2t/af8IWG6E0JREq0pIhMcrZ6eYccudgV68T0U8LzOi3a3wwqCb7x7gfl35KjCbqrsRuO68kG6dlBAIOAXq50U+UI8QLveMa6vrNHnA9xBVmBIIYASZ7EHcuN40RcESAyc73AyNgEQSY7BbpaG4mI8Bk53uAEbAIAkx2i3Q0N5MRYLLzPcAIWAQB1evsn0d9uEeWFHuEiXzjP/3Wh1CVngKb16/2mNbTydu3bPd0ms8xAqZCgGKtkwJNeVoKlKHYqqMKDW3uIoe03R1d8EZj25wD2dOrK+ETGFPBkx3v6QPHOAye0kqdU012qcL4GCNgdQQo/sETK8ohycVrzo4L6SpWolcd/ZbjS/C5fccNg4zJbhjUfKFgR2DTslJF8ufXL8i0SaxrEXdRgil/sytBi9MyAjII0KeqmjgHKzPlt3nLXEr1Yb++2TsuXICei71zlV9UVOikG6+6VZyRETAQgcjQUHh6tXsEo2MnT87VIiQkFKoq3dO4bpLRs9p+JTs1bGhoPridng3lshkBvRBYl5MhGdpscnLKSTde6vpBpRu//b7bpdrIxxiBoEGg0EGdRmmj7ltcAPQzwvib3QiU+RpBjUCGTGRiszWayW62HuH6BBwCwzhcDwTTnezfRZlcewzqQACE68gIKEXglAYdOcpLHNFShmh9dSU7edBtQ+mqQ53yQSKiUE7a/hOtNKdjBMyEQH3/kKyUmrd7u2N03MYR+ldv8+tsfG5ODtCPjREIZARIfmpLQ6vbOvua1au8Nov0F40yXd/sRjWCr8MI+BuBN9HP/ZCKMGc1vf2GVZ3JbhjUfKFgRqBzbBx+eLQOaLOKqA3ixN4BD5+4ouWIpmOyiyLF6RgBLwh0IeFpVxrpwXsL1EgPh3/cewxIetooU/3NThK5naNikScpIgzNOLIxAlZA4I2mdoxR2A4UEakSt7kmRjrTrGVo1KYZ7xgD8V2MgHSie951XAqn/kltDwbVZKc9ufQTsb6JSduMIxsjYCUEaDVKNOwZLb3pvfzGw3gr3X3cVksjwGS3dPdz462EAJPdSr3NbbU0Akx2S3c/N95KCDDZrdTb3FZLI8Bkt3T3c+OthACT3Uq9zW21NAJMdkt3PzfeSggw2a3U29xWSyPAZLd093PjrYQAk91Kvc1ttTQCTHZLdz833koIMNmt1NvcVksjwGS3dPdz462EAJPdSr3NbbU0Akx2S3c/N95KCDDZrdTb3FZLI6BaqUYLaoUpybbsEzMz0Dk8oqUozssIBAQC0eHhkJ0Qb6vrwMQEDKD8tNFmGNk/V70cPr96OWxYVAjhGOLWbiOosPmfp+vgpX1H4KPmVqPbz9djBHRDID4qEv7m+mvgs1UVsGJBttN12geH4I8nauBHuw9AS/+AbnVwLFh3st+ztBQ2rVsNd5YvlmwQAUIPgvuWLYEX9x5G0h+GMz2ehfckC+KDjIBJEAjBenwF7/kvr6mGlbnOJLdXMS8pEZ68cS3cvaQUXsR7/uX9R2AItRr1NF2/2R/HBr/60H2yRHdsWGxEBHxj/Vp450sPw9qFeXq2mctmBHRDgIbr//qp/wL/ft+dskR3vPji9FT47t23w38++tm5Yb5eldON7F+//lpbg+nNrcQKU5PhhU/fCavzFijJxmkZAVMg8H/vvg2+hve+UqPP2+99ciMkRkcpzSqcXheyX1+Yj0N373Gu5GpZjUMfyh8aQgMiNkYgMBD44jUr4CtrV6uu7F+trLQN/fUyn5M9BoXxN61dBRVZGZrq/KVrVyJw6h8Ymi7OmRkBhQjQBBzd9xFh2ihF9/ytJUUKry6WXFvNJK5xa0kxPLJqucQZ5YfoSec4c6+8BM7BCBiDwJ1LSmBNQa7mi9E3/KcqyzWXI1WAz8letSBL6jqqjt1QVMCTdaqQ40xGI7Bh0UKfXfILq6qAJvp8bT4n+w2FBT6tYwk+6dgYATMjEBsZAWsLfLeCRJPaBSlJQk2eQcc0UfP6+PjhD38I712gde8IoTIz4+OE0okmSo+LFU3K6RgBvyCQEReneNXJW0WJR/UC/ibd3d3eipo77/XN/uSTT8Kn77pLuMDZS5eE04oknL18WSQZp2EE/IaAr+95aohomSvLSoTb7ZXsVFJ2gvjbukcwjLNoDS+OjIom5XSMgF8QoHt+EP3dfWmiPLL724tcW5DsVxz4RQo83O670MwzOEpo7O0XuSynYQT8hsAkfjfvbmr12fUPtZ8X3iDmc7IvzxGfYf/l4eM+azTtiPu4pc1n5XFBjIBeCLxZU++zouu6LwJtEBOxiLAwkWS2NEJvdpokI8d9EWu42AevHDwmktRrmn96d4fXNJyAETADAq8ePgFEUq1GqPHHRQAAAxlJREFU276//f5HwsUsz8kUTitEdiptY2mxcKH/+tF+2HeuXTi9VMIf7N4HrxzyzUNDqnw+xgj4EgEi6f/ctgP6xsY1FfvUm9uEHxo5ifFwy2Jxbzthsl+H/u6idvx8l23L3tTsrGgWp3Q7GlvgJdzuysYIBBICfzheAy/hfa/WaHv3i3sPCWenPSjFaSnC6YXJ/lD1MkVePT/HofyTb/xF+NvDXuOWvgF49p0PeE+7cBdyQjMh8M/bdsILHx9QXCV6wT2HeZUsNFdkiw/hqUIhl9FEa7bpj2/DTxU+uUiC6mefvcemUOPNCCQiuujkhLfy+Dwj4C8E6H7/2WfuAdqy7cnoXqd7XukDgtxpT3zzcSBfelFTRHaaHS/9zguqyMiyVKJdwumCBQE9Zam+edN1KHpxmyKoFJGdSn5++054HocbWowFJ7Wgx3kDEQFfCk4mx0RD039/AuhfJaaY7DTrWPp/XgASzGNjBBgB4xH4EcpeqVHDEZ6gszfJrrGlZBbQeDj4ioxAcCLwdzdfr4rohIZislOmT+Pm+qfWr4MYFIlkYwQYAWMQeAjFXL6BirRqTRXZ6WJ/fd1qeOom9RdWW2HOxwhYEQHygX9u4wbIUrApzRUnxd/srgV8f9c++MGuvdAxOOx6iv9mBBgBHyDweZR5exJl1l0DTSgtWjPZ6YKvHTsN39+5Bw75cMeb0oZwekYg2BCgz+Qnb1yDI+h1kBYbo7l5PiE71cLu+fbasVOaK8UFMAJWR4CG7d++4xZ4FOWpfWU+I7u9Qm/hVr/fHDkJvzt+2ld15HIYAcsgcE3+Anho5TJ4GN3TfS3J5nOy23vlvbNN8OfaBni7th5o2ysbI8AISCNAy9nkXntPRalNRlqJIIV0idJHdSO74+Vony85+nehxNS5vkF4fdt2qFiGG2uilXkASTeBjzICgYHArl27YP369bY3NulDZMbHQiVuZiGiKw2TpqbFhpBdTcU4DyPACPgWAdXr7L6tBpfGCDACeiPAZNcbYS6fETAJAkx2k3QEV4MR0BsBJrveCHP5jIBJEPj/AVdofZjQvkMAAAAASUVORK5CYII=;" vertex="1" parent="1">
          <mxGeometry x="130" y="60" width="251" height="593" as="geometry" />
        </mxCell>
        <mxCell id="F9F8o9_uDB8CdRO1BHH_-5" value="GND" style="rounded=0;whiteSpace=wrap;html=1;fillColor=#f5f5f5;fontColor=#333333;strokeColor=#666666;" vertex="1" parent="1">
          <mxGeometry x="390" y="250" width="50" height="20" as="geometry" />
        </mxCell>
        <mxCell id="F9F8o9_uDB8CdRO1BHH_-7" style="edgeStyle=orthogonalEdgeStyle;rounded=0;orthogonalLoop=1;jettySize=auto;html=1;exitX=0.5;exitY=0;exitDx=0;exitDy=0;entryX=0;entryY=0.5;entryDx=0;entryDy=0;endArrow=none;endFill=0;strokeWidth=4;" edge="1" parent="1" source="F9F8o9_uDB8CdRO1BHH_-6" target="F9F8o9_uDB8CdRO1BHH_-5">
          <mxGeometry relative="1" as="geometry" />
        </mxCell>
        <mxCell id="F9F8o9_uDB8CdRO1BHH_-6" value="" style="rounded=0;whiteSpace=wrap;html=1;fillColor=none;strokeColor=none;" vertex="1" parent="1">
          <mxGeometry x="270" y="280" width="10" height="10" as="geometry" />
        </mxCell>
        <mxCell id="F9F8o9_uDB8CdRO1BHH_-11" style="edgeStyle=orthogonalEdgeStyle;rounded=0;orthogonalLoop=1;jettySize=auto;html=1;fillColor=#f8cecc;strokeColor=#b85450;strokeWidth=4;endArrow=none;endFill=0;" edge="1" parent="1" source="F9F8o9_uDB8CdRO1BHH_-8" target="F9F8o9_uDB8CdRO1BHH_-10">
          <mxGeometry relative="1" as="geometry" />
        </mxCell>
        <mxCell id="F9F8o9_uDB8CdRO1BHH_-8" value="" style="rounded=0;whiteSpace=wrap;html=1;fillColor=#f8cecc;strokeColor=#b85450;" vertex="1" parent="1">
          <mxGeometry x="150" y="300" width="20" height="10" as="geometry" />
        </mxCell>
        <mxCell id="F9F8o9_uDB8CdRO1BHH_-10" value="VIN" style="rounded=0;whiteSpace=wrap;html=1;fillColor=#f8cecc;strokeColor=#b85450;" vertex="1" parent="1">
          <mxGeometry x="70" y="295" width="50" height="20" as="geometry" />
        </mxCell>
        <mxCell id="F9F8o9_uDB8CdRO1BHH_-16" style="edgeStyle=orthogonalEdgeStyle;rounded=0;orthogonalLoop=1;jettySize=auto;html=1;exitX=1;exitY=0.5;exitDx=0;exitDy=0;entryX=0;entryY=0.5;entryDx=0;entryDy=0;strokeWidth=4;fillColor=#d5e8d4;strokeColor=#82b366;endArrow=none;endFill=0;" edge="1" parent="1" source="F9F8o9_uDB8CdRO1BHH_-12" target="F9F8o9_uDB8CdRO1BHH_-14">
          <mxGeometry relative="1" as="geometry" />
        </mxCell>
        <mxCell id="F9F8o9_uDB8CdRO1BHH_-12" value="" style="rounded=0;whiteSpace=wrap;html=1;fillColor=#d5e8d4;strokeColor=#82b366;" vertex="1" parent="1">
          <mxGeometry x="260" y="150" width="10" height="10" as="geometry" />
        </mxCell>
        <mxCell id="F9F8o9_uDB8CdRO1BHH_-13" value="" style="rounded=0;whiteSpace=wrap;html=1;fillColor=#f5f5f5;fontColor=#333333;strokeColor=#666666;" vertex="1" parent="1">
          <mxGeometry x="230" y="150" width="10" height="10" as="geometry" />
        </mxCell>
        <mxCell id="F9F8o9_uDB8CdRO1BHH_-14" value="USB D+" style="rounded=0;whiteSpace=wrap;html=1;fillColor=#d5e8d4;strokeColor=#82b366;" vertex="1" parent="1">
          <mxGeometry x="390" y="145" width="50" height="20" as="geometry" />
        </mxCell>
        <mxCell id="F9F8o9_uDB8CdRO1BHH_-17" style="edgeStyle=orthogonalEdgeStyle;rounded=0;orthogonalLoop=1;jettySize=auto;html=1;entryX=0;entryY=0.5;entryDx=0;entryDy=0;endArrow=none;endFill=0;strokeWidth=4;fillColor=#f5f5f5;strokeColor=#666666;" edge="1" parent="1" source="F9F8o9_uDB8CdRO1BHH_-15" target="F9F8o9_uDB8CdRO1BHH_-13">
          <mxGeometry relative="1" as="geometry" />
        </mxCell>
        <mxCell id="F9F8o9_uDB8CdRO1BHH_-15" value="USB D-" style="rounded=0;whiteSpace=wrap;html=1;fillColor=#f5f5f5;fontColor=#333333;strokeColor=#666666;" vertex="1" parent="1">
          <mxGeometry x="70" y="145" width="50" height="20" as="geometry" />
        </mxCell>
      </root>
    </mxGraphModel>
  </diagram>
</mxfile>
